<?xml version="1.0" encoding="UTF-8" standalone="no"?>
<!-- Created with Inkscape (http://www.inkscape.org/) -->

<svg
   xmlns:osb="http://www.openswatchbook.org/uri/2009/osb"
   xmlns:dc="http://purl.org/dc/elements/1.1/"
   xmlns:cc="http://creativecommons.org/ns#"
   xmlns:rdf="http://www.w3.org/1999/02/22-rdf-syntax-ns#"
   xmlns:svg="http://www.w3.org/2000/svg"
   xmlns="http://www.w3.org/2000/svg"
   xmlns:xlink="http://www.w3.org/1999/xlink"
   xmlns:sodipodi="http://sodipodi.sourceforge.net/DTD/sodipodi-0.dtd"
   xmlns:inkscape="http://www.inkscape.org/namespaces/inkscape"
   width="80"
   height="80"
   id="svg2"
   version="1.1"
   inkscape:version="0.48.2 r9819"
   sodipodi:docname="vcard.svg">
  <title
     id="title3041">vCard</title>
  <defs
     id="defs4">
    <linearGradient
       id="linearGradient4493">
      <stop
         style="stop-color:#545454;stop-opacity:1;"
         offset="0"
         id="stop4495" />
      <stop
         style="stop-color:#000000;stop-opacity:1;"
         offset="1"
         id="stop4497" />
    </linearGradient>
    <linearGradient
       id="linearGradient4485">
      <stop
         id="stop4487"
         offset="0"
         style="stop-color:#000000;stop-opacity:1;" />
      <stop
         id="stop4489"
         offset="1"
         style="stop-color:#171717;stop-opacity:0.85130113;" />
    </linearGradient>
    <linearGradient
       id="linearGradient5650">
      <stop
         id="stop5652"
         offset="0"
         style="stop-color:#f9f9f9;stop-opacity:1;" />
      <stop
         id="stop5654"
         offset="1"
         style="stop-color:#ffffff;stop-opacity:1;" />
    </linearGradient>
    <linearGradient
       id="linearGradient5541">
      <stop
         id="stop5543"
         offset="0"
         style="stop-color:#1c333f;stop-opacity:1;" />
      <stop
         id="stop5545"
         offset="1"
         style="stop-color:#3c6c87;stop-opacity:0;" />
    </linearGradient>
    <linearGradient
       id="linearGradient5477">
      <stop
         id="stop5479"
         offset="0"
         style="stop-color:#ffffff;stop-opacity:1;" />
      <stop
         id="stop5481"
         offset="1"
         style="stop-color:#31586d;stop-opacity:1;" />
    </linearGradient>
    <linearGradient
       id="linearGradient5425">
      <stop
         id="stop5427"
         offset="0"
         style="stop-color:#ffffff;stop-opacity:1;" />
      <stop
         id="stop5429"
         offset="1"
         style="stop-color:#f0f0f0;stop-opacity:1;" />
    </linearGradient>
    <linearGradient
       id="linearGradient4336">
      <stop
         id="stop4338"
         offset="0"
         style="stop-color:#366179;stop-opacity:1;" />
      <stop
         id="stop4340"
         offset="1"
         style="stop-color:#40738f;stop-opacity:1;" />
    </linearGradient>
    <linearGradient
       id="linearGradient4104">
      <stop
         id="stop4106"
         offset="0"
         style="stop-color:#333333;stop-opacity:1;" />
      <stop
         id="stop4108"
         offset="1"
         style="stop-color:#535353;stop-opacity:1;" />
    </linearGradient>
    <linearGradient
       id="linearGradient3958">
      <stop
         id="stop3960"
         offset="0"
         style="stop-color:#ffcc00;stop-opacity:1;" />
      <stop
         id="stop3962"
         offset="1"
         style="stop-color:#ffd941;stop-opacity:1;" />
    </linearGradient>
    <linearGradient
       id="linearGradient4122">
      <stop
         id="stop4124"
         offset="0"
         style="stop-color:#006700;stop-opacity:1;" />
      <stop
         id="stop4126"
         offset="1"
         style="stop-color:#00944c;stop-opacity:1;" />
    </linearGradient>
    <linearGradient
       id="linearGradient3969"
       osb:paint="solid">
      <stop
         style="stop-color:#ff0000;stop-opacity:1;"
         offset="0"
         id="stop3971" />
    </linearGradient>
    <linearGradient
       id="linearGradient3792">
      <stop
         id="stop3794"
         offset="0"
         style="stop-color:#808080;stop-opacity:1;" />
      <stop
         id="stop3796"
         offset="1"
         style="stop-color:#4e4e4e;stop-opacity:1;" />
    </linearGradient>
    <radialGradient
       inkscape:collect="always"
       xlink:href="#linearGradient3792"
       id="radialGradient3804"
       cx="-605.99841"
       cy="89.124168"
       fx="-605.99841"
       fy="89.124168"
       r="63.258614"
       gradientTransform="matrix(0.00655679,0,0,0.00716501,360.11677,414.06033)"
       gradientUnits="userSpaceOnUse" />
    <radialGradient
       inkscape:collect="always"
       xlink:href="#linearGradient3792"
       id="radialGradient3816"
       gradientUnits="userSpaceOnUse"
       gradientTransform="matrix(2.23993,0,1.0254585e-8,2.4477047,746.81377,782.79336)"
       cx="-605.99841"
       cy="89.124168"
       fx="-605.99841"
       fy="89.124168"
       r="63.258614" />
    <linearGradient
       inkscape:collect="always"
       xlink:href="#linearGradient3958"
       id="linearGradient3956"
       x1="2299.707"
       y1="6657.1362"
       x2="2303.9136"
       y2="4912.0962"
       gradientUnits="userSpaceOnUse" />
    <radialGradient
       inkscape:collect="always"
       xlink:href="#linearGradient3792"
       id="radialGradient4028"
       gradientUnits="userSpaceOnUse"
       gradientTransform="matrix(0.00655679,0,0,0.00716501,217.02465,266.72844)"
       cx="-605.99841"
       cy="89.124168"
       fx="-605.99841"
       fy="89.124168"
       r="63.258614" />
    <linearGradient
       inkscape:collect="always"
       xlink:href="#linearGradient4104"
       id="linearGradient4102"
       x1="386.41544"
       y1="849.64441"
       x2="384.10507"
       y2="786.09943"
       gradientUnits="userSpaceOnUse"
       gradientTransform="translate(0,0.61100976)" />
    <linearGradient
       inkscape:collect="always"
       xlink:href="#linearGradient4336"
       id="linearGradient4617"
       gradientUnits="userSpaceOnUse"
       x1="2323.3872"
       y1="6602.6133"
       x2="2315.1353"
       y2="4530.5938" />
    <linearGradient
       inkscape:collect="always"
       xlink:href="#linearGradient4336"
       id="linearGradient4810"
       gradientUnits="userSpaceOnUse"
       x1="2323.3872"
       y1="6602.6133"
       x2="2315.1353"
       y2="4530.5938" />
    <linearGradient
       inkscape:collect="always"
       xlink:href="#linearGradient5477"
       id="linearGradient5475"
       x1="423.43457"
       y1="1908.8961"
       x2="423.05643"
       y2="1859.3551"
       gradientUnits="userSpaceOnUse" />
    <clipPath
       clipPathUnits="userSpaceOnUse"
       id="clipPath5620">
      <path
         transform="matrix(0.02570175,0,0,0.02570175,458.52582,1673.1518)"
         d="m 3644.3552,5312.4878 a 1344.6414,1344.6414 0 1 1 -2689.28269,0 1344.6414,1344.6414 0 1 1 2689.28269,0 z"
         sodipodi:ry="1344.6414"
         sodipodi:rx="1344.6414"
         sodipodi:cy="5312.4878"
         sodipodi:cx="2299.7139"
         id="path5622"
         style="fill:url(#linearGradient5624);fill-opacity:1;fill-rule:nonzero;stroke:none"
         sodipodi:type="arc" />
    </clipPath>
    <linearGradient
       inkscape:collect="always"
       xlink:href="#linearGradient4336"
       id="linearGradient5624"
       gradientUnits="userSpaceOnUse"
       x1="2323.3872"
       y1="6279.1689"
       x2="2254.4895"
       y2="4894.4683" />
    <linearGradient
       inkscape:collect="always"
       xlink:href="#linearGradient5425"
       id="linearGradient5640"
       gradientUnits="userSpaceOnUse"
       x1="425.28156"
       y1="1910.4961"
       x2="428.5126"
       y2="1943.7124" />
    <linearGradient
       inkscape:collect="always"
       xlink:href="#linearGradient5650"
       id="linearGradient5648"
       x1="423.99063"
       y1="1924.1331"
       x2="431.59763"
       y2="1850.5944"
       gradientUnits="userSpaceOnUse" />
    <linearGradient
       inkscape:collect="always"
       xlink:href="#linearGradient4336"
       id="linearGradient5664"
       gradientUnits="userSpaceOnUse"
       x1="2323.3872"
       y1="6279.1689"
       x2="2254.4895"
       y2="4894.4683" />
    <clipPath
       clipPathUnits="userSpaceOnUse"
       id="clipPath5672">
      <path
         transform="matrix(0.07149562,0,0,0.0610597,456.71816,1421.0597)"
         d="m 3644.3552,5312.4878 a 1344.6414,1344.6414 0 1 1 -2689.28269,0 1344.6414,1344.6414 0 1 1 2689.28269,0 z"
         sodipodi:ry="1344.6414"
         sodipodi:rx="1344.6414"
         sodipodi:cy="5312.4878"
         sodipodi:cx="2299.7139"
         id="path5674"
         style="fill:url(#linearGradient5676);fill-opacity:1;fill-rule:nonzero;stroke:none"
         sodipodi:type="arc" />
    </clipPath>
    <linearGradient
       inkscape:collect="always"
       xlink:href="#linearGradient4336"
       id="linearGradient5676"
       gradientUnits="userSpaceOnUse"
       x1="2323.3872"
       y1="6279.1689"
       x2="2254.4895"
       y2="4894.4683" />
    <linearGradient
       inkscape:collect="always"
       xlink:href="#linearGradient5650"
       id="linearGradient4657"
       gradientUnits="userSpaceOnUse"
       gradientTransform="matrix(1.0916029,0,0,1.0916029,-92.151649,574.66846)"
       x1="422.62881"
       y1="1956.136"
       x2="422.74576"
       y2="1815.1869" />
    <linearGradient
       inkscape:collect="always"
       xlink:href="#linearGradient5650"
       id="linearGradient4659"
       gradientUnits="userSpaceOnUse"
       gradientTransform="matrix(1.0916029,0,0,1.0916029,-92.151649,574.66846)"
       x1="423.99063"
       y1="1924.1331"
       x2="431.59763"
       y2="1850.5944" />
    <radialGradient
       inkscape:collect="always"
       xlink:href="#linearGradient4493"
       id="radialGradient4491"
       cx="2299.7139"
       cy="5312.4878"
       fx="2299.7139"
       fy="5312.4878"
       r="1344.6414"
       gradientUnits="userSpaceOnUse"
       gradientTransform="matrix(1.7324601,1.4050568e-8,-1.3706328e-8,1.6900147,-1684.4485,-3665.6947)" />
  </defs>
  <sodipodi:namedview
     id="base"
     pagecolor="#ffffff"
     bordercolor="#666666"
     borderopacity="1.0"
     inkscape:pageopacity="0.0"
     inkscape:pageshadow="2"
     inkscape:zoom="1"
     inkscape:cx="-393.45471"
     inkscape:cy="38.629823"
     inkscape:document-units="px"
     inkscape:current-layer="layer1"
     showgrid="false"
     showguides="true"
     inkscape:guide-bbox="true"
     inkscape:window-width="1600"
     inkscape:window-height="878"
     inkscape:window-x="-8"
     inkscape:window-y="-8"
     inkscape:window-maximized="1"
     fit-margin-top="0"
     fit-margin-left="0"
     fit-margin-right="0"
     fit-margin-bottom="0" />
  <metadata
     id="metadata7">
    <rdf:RDF>
      <cc:Work
         rdf:about="">
        <dc:format>image/svg+xml</dc:format>
        <dc:type
           rdf:resource="http://purl.org/dc/dcmitype/StillImage" />
        <dc:title>vCard</dc:title>
        <dc:creator>
          <cc:Agent>
            <dc:title>Proudsugar</dc:title>
          </cc:Agent>
        </dc:creator>
        <cc:license
           rdf:resource="http://www.gnu.org/licenses/gpl-3.0.html" />
      </cc:Work>
    </rdf:RDF>
  </metadata>
  <g
     inkscape:label="Capa 1"
     inkscape:groupmode="layer"
     id="layer1"
     transform="translate(-417.77941,-454.44795)">
    <path
       sodipodi:type="arc"
       style="fill:url(#radialGradient4491);fill-opacity:1;fill-rule:nonzero;stroke:none"
       id="path4426"
       sodipodi:cx="2299.7139"
       sodipodi:cy="5312.4878"
       sodipodi:rx="1344.6414"
       sodipodi:ry="1344.6414"
       d="m 3644.3552,5312.4878 c 0,742.6249 -602.0164,1344.6414 -1344.6413,1344.6414 -742.6249,0 -1344.64139,-602.0165 -1344.64139,-1344.6414 0,-742.6249 602.01649,-1344.6414 1344.64139,-1344.6414 742.6249,0 1344.6413,602.0165 1344.6413,1344.6414 z"
       transform="matrix(0.02974771,0,0,0.02974771,389.36819,336.4136)"
       inkscape:export-filename="C:\Users\daniel\Desktop\vcard25.png"
       inkscape:export-xdpi="25.82"
       inkscape:export-ydpi="25.82" />
    <path
       style="fill:#ffffff;fill-opacity:1;fill-rule:nonzero;stroke:none"
       d="M 39.34375 4.34375 C 38.34863 4.34375 37.34899 4.403 36.46875 4.53125 C 32.97326 5.04148 29.86912 6.5501 27.34375 8.96875 C 23.68667 12.47268 22.00373 16.71741 22.25 21.875 C 22.52405 27.61776 25.81742 32.89367 30.78125 35.53125 C 32.81592 36.61167 35.38767 37.33264 37.96875 37.53125 L 38.25 37.53125 C 38.64402 37.46925 39.25875 37.52325 39.65625 37.53125 C 43.54994 37.56205 46.94199 36.7751 50.59375 34.9375 L 51 34.71875 L 51.21875 34.625 L 51.125 34.40625 L 51.03125 34.21875 C 50.99425 34.12895 50.69086 33.29342 50.34375 32.40625 C 50.17013 31.96229 49.99109 31.57771 49.875 31.28125 C 49.8169 31.13289 49.7519 30.99019 49.71875 30.90625 C 49.70215 30.86435 49.6968 30.8355 49.6875 30.8125 C 49.6825 30.8008 49.6905 30.78865 49.6875 30.78125 L 49.46875 30.875 L 49.625 30.71875 C 49.599 30.69845 49.5625 30.65625 49.5625 30.65625 C 49.56247 30.65613 49.46885 30.625 49.46875 30.625 C 49.46865 30.625 49.4376 30.625 49.4375 30.625 C 49.43717 30.62512 49.3823 30.6231 49.375 30.625 C 49.3635 30.631 49.35375 30.65255 49.34375 30.65625 C 49.32365 30.66425 49.2816 30.64315 49.25 30.65625 C 49.1869 30.68275 49.10884 30.73338 49 30.78125 C 48.78232 30.87705 48.48346 31.00457 48.15625 31.15625 C 45.7135 32.2695 44.63977 32.6261 42.4375 32.96875 C 41.50668 33.12511 38.14886 33.1176 37.21875 32.96875 C 35.33193 32.66989 33.66061 32.03339 32.3125 31.15625 C 31.26561 30.47624 30.00062 29.36449 29.3125 28.46875 C 28.08173 26.86824 27.36332 25.12757 27.03125 22.96875 C 26.88965 22.04592 26.88946 19.82656 27.03125 18.90625 C 27.44831 16.19514 28.43682 14.19241 30.25 12.3125 C 32.24818 10.24033 34.52817 9.0008 37.3125 8.5625 C 38.17967 8.42037 40.4833 8.41821 41.4375 8.5625 C 44.09589 8.95646 46.30225 10.01842 48 11.71875 C 49.51234 13.23322 50.39284 14.97625 50.78125 17.09375 C 50.93357 17.95869 50.94151 20.09221 50.78125 20.8125 C 50.26413 23.12429 49.06307 24.87931 47.625 25.59375 C 47.16158 25.82949 47.06029 25.85588 46.6875 25.90625 L 46.375 25.9375 L 46.34375 25.84375 L 46.3125 25.84375 C 46.2528 25.75405 46.29235 25.78454 46.28125 25.625 C 46.27005 25.46543 46.26335 25.17615 46.28125 24.59375 C 46.30765 23.5427 46.38788 22.72557 46.9375 18.28125 L 47.5625 13.1875 L 47.59375 12.90625 L 47.34375 12.90625 L 45.21875 12.90625 L 43.125 12.90625 L 42.90625 12.90625 L 42.875 13.09375 L 42.75 13.53125 C 42.7296 13.60805 42.706 13.65458 42.6875 13.71875 C 42.54749 13.65645 42.36184 13.5404 42.15625 13.4375 C 40.80535 12.76211 39.86443 12.53125 38.5625 12.53125 C 36.20597 12.53125 34.16672 13.4037 32.5 15.09375 C 31.32196 16.28811 30.58122 17.75961 30.25 19.53125 C 30.06652 20.54499 30.0771 22.65256 30.28125 23.65625 C 30.91262 26.77726 33.00524 29.1656 35.84375 29.9375 L 35.875 29.9375 C 36.41858 30.10753 36.64265 30.125 37.6875 30.125 C 38.75109 30.125 38.94639 30.13023 39.5 29.96875 C 40.55791 29.68042 41.47076 29.1726 42.375 28.40625 C 42.461 28.33305 42.53074 28.29816 42.59375 28.25 C 42.64995 28.3238 42.71007 28.40719 42.78125 28.5 C 43.19642 29.04988 43.56999 29.37358 44.15625 29.65625 C 44.79693 29.96879 45.43327 30.09375 46.1875 30.09375 C 48.36727 30.09375 50.69552 28.94349 52.28125 27.09375 C 53.75226 25.37821 54.75907 23.06804 55.125 20.5625 C 55.2499 19.74448 55.25951 17.93449 55.15625 17.09375 C 54.77455 13.97397 53.4297 11.27384 51.125 8.96875 C 48.69454 6.53804 45.72837 5.04874 42.21875 4.53125 C 41.34341 4.40298 40.33887 4.34375 39.34375 4.34375 z M 38.65625 17.28125 C 39.70098 17.28825 40.52627 17.5969 41.21875 18.25 C 42.03043 19.01598 42.30668 20.09503 42.0625 21.5 C 41.89205 22.4774 41.45119 23.37383 40.71875 24.15625 C 40.04153 24.87851 39.28028 25.29195 38.375 25.40625 L 38.34375 25.40625 C 38.32395 25.41225 38.3318 25.40025 38.3125 25.40625 L 38.125 25.40625 C 38.01661 25.41525 37.88375 25.46875 37.875 25.46875 C 37.8572 25.46875 37.70917 25.44875 37.5625 25.40625 L 37.53125 25.40625 L 37.5 25.40625 C 36.86507 25.31685 36.52002 25.09202 36.0625 24.59375 C 35.34707 23.80991 34.9843 22.75356 35.0625 21.375 C 35.1409 19.98216 35.51484 19.04643 36.28125 18.28125 C 37.0434 17.52512 37.6484 17.28125 38.65625 17.28125 z M 28.34375 36.4375 C 17.78167 47.32313 16.56252 52.64443 17.0625 67.21875 C 17.44084 70.08283 20.21549 69.66437 24.4375 71.5 L 22.84375 54.78125 C 22.76905 53.98189 23.0028 53.47367 23.3125 53.53125 C 23.62419 53.58115 24.74057 54.29224 24.8125 55.09375 L 26.375 73.15625 C 30.22397 74.62176 34.30572 75.50399 39.625 75.5625 C 39.7047 75.56219 39.76624 75.56219 39.84375 75.5625 L 39.9375 75.5625 L 40.0625 75.5625 L 40.15625 75.5625 C 40.23345 75.56219 40.295 75.56219 40.375 75.5625 C 45.69428 75.5095 49.77604 74.62176 53.625 73.15625 L 55.1875 55.09375 C 55.261 54.29224 56.37534 53.58575 56.6875 53.53125 C 56.99629 53.47825 57.23071 53.98282 57.15625 54.78125 L 55.5625 71.5 C 59.78457 69.66437 62.5597 70.08283 62.9375 67.21875 C 63.43724 52.64443 62.21823 47.32313 51.65625 36.4375 C 48.74303 38.41416 44.80248 39.68382 40.375 39.78125 C 40.2953 39.78125 40.23438 39.78094 40.15625 39.78125 C 40.12515 39.78125 40.0914 39.78094 40.0625 39.78125 L 39.9375 39.78125 C 39.9063 39.78094 39.86085 39.78125 39.84375 39.78125 C 39.76655 39.78094 39.70345 39.78125 39.625 39.78125 C 35.19777 39.68165 31.2569 38.41416 28.34375 36.4375 z "
       transform="translate(417.77941,454.44795)"
       id="path4428" />
  </g>
</svg>
